<svg xmlns="http://www.w3.org/2000/svg" width="1280" height="400" viewBox="0 0 1280 400" role="img" aria-labelledby="title desc">
<title id="title">GetL-X — Small tools. Better days.</title>
<desc id="desc">A personal workshop for useful web apps, life tools, and open-source projects.</desc>
<defs>
  <linearGradient id="wash" x1="0" y1="1" x2="1" y2="0"><stop stop-color="#0b1521"/><stop offset="1" stop-color="#16313a"/></linearGradient>
  <radialGradient id="glow"><stop stop-color="#5ecaa4" stop-opacity=".14"/><stop offset="1" stop-color="#0b1521" stop-opacity="0"/></radialGradient>
  <pattern id="grid" width="40" height="40" patternUnits="userSpaceOnUse"><path d="M 40 0 L 0 0 0 40" fill="none" stroke="#253748" stroke-width="1"/></pattern>
  <clipPath id="clip"><rect width="1280" height="400" rx="24"/></clipPath>
</defs>
<g clip-path="url(#clip)">
  <rect width="1280" height="400" fill="url(#wash)"/>
  <rect x="640" width="640" height="400" fill="url(#grid)" opacity=".5"/>
  <ellipse cx="1080" cy="160" rx="450" ry="360" fill="url(#glow)"/>
  <circle cx="1194" cy="86" r="160" stroke="#9de3c4" stroke-opacity=".12" fill="none"/>
  <circle cx="1194" cy="86" r="200" stroke="#9de3c4" stroke-opacity=".08" fill="none"/>
  <g font-family="'Segoe UI', Arial, sans-serif">
    <rect x="58" y="44" width="326" height="30" rx="15" fill="#122232" stroke="#253748"/>
    <circle cx="77" cy="59" r="4" fill="#9de3c4"/>
    <text x="91" y="64" font-size="12" font-weight="600" letter-spacing="2" fill="#9aacbd">PERSONAL PROJECTS / OPEN SOURCE</text>
    <text x="54" y="182" font-size="88" font-weight="750" letter-spacing="-4" fill="#f4f8fb">GetL-X<tspan fill="#9de3c4">.</tspan></text>
    <text x="58" y="247" font-size="36" font-weight="500" letter-spacing="-.8" fill="#f4f8fb">Small tools. Better days.</text>
    <rect x="59" y="274" width="38" height="3" rx="1.5" fill="#9de3c4"/>
    <text x="58" y="315" font-size="18" fill="#9aacbd">Web apps · Life tools · Thoughtful details</text>
    <text x="59" y="365" font-size="12" letter-spacing="1.4" fill="#9aacbd">FROM EVERYDAY IDEAS TO THINGS YOU CAN USE.</text>
    <g transform="translate(797 62)">
      <rect x="9" y="13" width="416" height="280" rx="18" fill="#0b1521" opacity=".28"/>
      <rect width="416" height="280" rx="18" fill="#122232" stroke="#253748"/>
      <path d="M0 49H416" stroke="#253748"/>
      <circle cx="23" cy="25" r="4" fill="#9aacbd" opacity=".5"/><circle cx="38" cy="25" r="4" fill="#9aacbd" opacity=".35"/><circle cx="53" cy="25" r="4" fill="#9aacbd" opacity=".2"/>
      <text x="80" y="30" font-size="13" fill="#9aacbd">the everyday workshop</text>
      <path d="m380 20 5 5-5 5m-10-10-5 5 5 5" stroke="#9de3c4" stroke-width="1.5" fill="none" stroke-linecap="round"/>
      <text x="26" y="91" font-size="12" letter-spacing="1.8" fill="#9aacbd">A FEW THINGS I'M MAKING</text>
      <rect x="24" y="114" width="36" height="36" rx="10" fill="#9de3c4" fill-opacity=".1"/>
      <path d="M36 124h14v16H36zM39 129h8m-8 5h6" fill="none" stroke="#9de3c4" stroke-width="1.7" stroke-linecap="round" stroke-linejoin="round"/>
      <text x="74" y="130" font-size="18" font-weight="600" fill="#f4f8fb">Daybook</text><text x="74" y="148" font-size="12" fill="#9aacbd">Make room for your day.</text>
      <rect x="24" y="166" width="36" height="36" rx="10" fill="#bdc6fb" fill-opacity=".1"/>
      <circle cx="42" cy="184" r="9" fill="none" stroke="#bdc6fb" stroke-width="1.7"/><path d="M42 179v5l4 3" stroke="#bdc6fb" stroke-width="1.7" fill="none" stroke-linecap="round"/>
      <text x="74" y="182" font-size="18" font-weight="600" fill="#f4f8fb">LastDone</text><text x="74" y="200" font-size="12" fill="#9aacbd">Remember the little things.</text>
      <path d="M24 222H392" stroke="#253748"/>
      <circle cx="30" cy="250" r="3.5" fill="#9de3c4"/><text x="42" y="255" font-size="12" fill="#9aacbd">Built around real life.</text>
      <text x="322" y="255" font-size="12" fill="#9de3c4">getl-x ↗</text>
    </g>
  </g>
</g>
</svg>